PathFileType	4	(X/Y/Z)	C:/Users/beibeiliu/ov580/test_trc/User2\sequence.18_training_dense_right.trc
DataRate	CameraRate	NumFrames	NumMarkers	Units	OrigDataRate	OrigDataStartFrame	OrigNumFrames
120	120	8	19	mm	120	54	429
Frame#	Time	ThumbCMC			ThumbMCP			ThumbIP			ThumbTip			IndexMCP			IndexPIP			IndexTip			MiddleMCP			MiddlePIP			MiddleTip			RingMCP			RingPIP			RingTip			PinkyMCP			PinkyPIP			PinkyTip			BackHand1			BackHand2			BackHand3	
		X0	Y0	Z0	X1	Y1	Z1	X2	Y2	Z2	X3	Y3	Z3	X4	Y4	Z4	X5	Y5	Z5	X6	Y6	Z6	X7	Y7	Z7	X8	Y8	Z8	X9	Y9	Z9	X10	Y10	Z10	X11	Y11	Z11	X12	Y12	Z12	X13	Y13	Z13	X14	Y14	Z14	X15	Y15	Z15	X16	Y16	Z16	X17	Y17	Z17	X18	Y18	Z18	
53	0.441667	94.6163	21.6943	12.4078	80.653	32.2032	-20.7525	65.9129	25.4559	-50.0879	53.3205	1.95795	-70.2473	93.7877	-12.386	-62.8683	65.9069	-6.07617	-72.9442	67.1169	1.68797	-37.4243	82.9352	-31.1349	-64.1006	47.2835	-18.3091	-67.3239	49.9669	-8.81461	-29.5471	64.0195	-49.5618	-56.9407	38.9386	-33.6842	-57.7805	48.9085	-17.1393	-23.6615	56.7747	-61.7338	-36.5023	30.1679	-44.0994	-43.4285	36.464	-24.651	-17.4587	97.2963	-51.5926	5.06539	102.005	-44.0442	36.5764	116.267	-15.6819	11.6713	
54	0.45	86.5212	22.4745	16.3959	74.1545	33.1173	-13.5997	63.7986	29.1705	-49.4632	53.7104	13.8814	-67.9629	88.431	-3.71921	-64.8874	58.7827	2.87618	-66.565	62.6964	6.63224	-33.0201	82.342	-24.0152	-65.7638	46.6669	-14.8344	-66.3102	46.0878	-4.69985	-30.9679	68.3995	-41.4046	-58.5506	40.0101	-33.5563	-57.2567	45.0966	-19.2035	-24.1028	61.7138	-58.1866	-43.016	34.6256	-41.3618	-44.0433	39.5056	-28.2101	-11.9853	100.868	-43.4869	-0.13303	103.27	-41.3356	36.0822	114.452	-8.75179	10.4377	
55	0.458333	78.5568	23.6499	19.4596	67.4667	33.7253	-11.961	56.7314	35.0709	-43.1738	51.1694	17.4113	-67.3338	84.3344	7.0369	-60.9956	54.6485	4.64956	-64.5058	53.8784	8.16431	-30.4824	81.0938	-16.7923	-63.35	45.7397	-13.0767	-65.4979	43.788	-6.52317	-24.2509	71.3123	-39.4154	-55.8517	40.808	-26.3212	-54.5561	44.7141	-22.0877	-18.7438	67.7506	-54.2732	-42.1397	35.1507	-43.4298	-43.0007	40.1669	-27.8774	-14.7871	104.596	-38.7996	-0.638515	104.301	-36.2086	36.2181	109.79	1.06971	13.5261	
56	0.466667	69.2959	25.8022	24.4861	55.1621	36.9717	-5.91621	48.5065	36.6847	-38.8363	44.0274	26.2625	-63.7572	77.6646	14.0947	-56.9751	49.4339	11.5071	-63.8867	44.3138	10.67	-26.2353	78.461	-7.15323	-60.1979	43.9638	-12.4831	-63.2366	38.672	-7.38883	-22.9777	72.5475	-27.9477	-54.776	39.6652	-30.2575	-52.2889	44.0057	-23.79	-17.3946	71.2921	-45.7068	-43.756	37.909	-43.6593	-41.7676	42.0813	-34.5735	-9.85033	105.231	-30.4109	2.22151	106.963	-29.2374	35.9159	103.591	5.95228	17.2304	
57	0.475	58.0908	25.7523	31.3452	44.9769	38.1849	-1.1224	37.3957	41.1581	-36.2632	35.7289	30.9909	-55.9917	71.0283	25.7502	-50.3555	42.5985	12.7797	-60.5543	36.8822	8.09138	-23.8628	74.4799	0.0110058	-56.7548	38.5288	-8.99645	-58.3234	36.7775	-10.4618	-19.5705	73.0905	-23.0442	-53.1169	41.3504	-27.5926	-51.7304	44.1534	-18.9402	-14.7065	73.4184	-42.0328	-46.0849	42.2181	-38.5157	-40.8199	45.6991	-31.8399	-5.68315	105.381	-16.7406	4.007	106.828	-22.3849	34.6352	96.7678	12.6664	22.2329	
58	0.483333	49.7594	22.2761	34.2658	32.4331	34.6666	8.28414	25.1317	41.725	-25.2835	28.6342	32.007	-52.5828	63.4919	29.4583	-44.2964	34.7727	16.6529	-56.5301	27.658	7.47094	-23.468	71.204	9.05357	-51.5413	37.7934	-10.4635	-55.2576	34.2599	-8.50912	-14.567	71.1244	-11.0644	-51.5791	43.0244	-27.3652	-48.3086	43.4656	-22.1171	-14.177	77.2991	-34.1927	-44.5105	44.8131	-39.7378	-39.1692	45.7661	-35.4215	-5.65181	103.373	-12.1507	6.95792	105.088	-18.0547	41.8496	88.6469	17.1889	29.6804	
59	0.491667	41.9885	15.3263	39.2914	22.526	31.5203	13.6142	21.4685	34.5309	-21.7298	20.821	32.2045	-46.3001	53.9396	36.2597	-38.6174	33.618	17.145	-54.431	25.6544	0.620455	-22.2253	64.355	14.6658	-50.2537	36.7003	-7.67413	-54.1099	33.8568	-14.3674	-15.9115	71.6342	-7.48635	-50.9538	45.0075	-26.0122	-49.1719	46.6009	-26.0302	-13.3698	81.6472	-26.6579	-42.7379	50.467	-40.3086	-40.6812	49.6062	-35.921	-9.30583	100.113	-2.00498	6.08087	103.252	-12.8	43.8145	82.0038	18.5837	35.1725	
60	0.5	32.7256	8.96059	44.9322	19.0082	20.9419	17.2238	11.8203	31.466	-16.1953	13.3442	32.5304	-44.3363	48.419	36.4741	-36.6482	26.7974	15.6776	-50.9601	19.6116	-1.51412	-19.8283	60.6302	22.3438	-43.1009	35.4209	-2.18893	-53.9139	37.24	-16.1464	-11.8554	69.6171	-2.33781	-50.8875	48.6615	-22.7091	-49.1821	50.0563	-25.6128	-12.4674	83.9873	-20.2248	-41.7812	52.5941	-33.9223	-39.2197	53.8015	-39.9344	-9.80238	99.1568	3.21825	10.948	101.367	-8.88717	44.9527	74.317	20.5924	36.6583	
